<svg width="20" height="21" viewBox="0 0 20 21" fill="none" xmlns="http://www.w3.org/2000/svg">
<g filter="url(#filter0_d)">
<path d="M11.3032 17.0647L10.4151 17.9528C10.039 18.3288 9.43097 18.3288 9.05892 17.9528L1.28203 10.1799C0.905989 9.80387 0.905989 9.1958 1.28203 8.82376L9.05892 1.04686C9.43497 0.670821 10.043 0.670821 10.4151 1.04686L11.3032 1.93497C11.6832 2.31501 11.6752 2.93508 11.2872 3.30712L6.46663 7.89965H17.9639C18.496 7.89965 18.9241 8.3277 18.9241 8.85976V10.1399C18.9241 10.672 18.496 11.1 17.9639 11.1H6.46663L11.2872 15.6925C11.6792 16.0646 11.6872 16.6847 11.3032 17.0647Z" fill="white"/>
</g>
<defs>
<filter id="filter0_d" x="0" y="0.764832" width="19.9241" height="19.47" filterUnits="userSpaceOnUse" color-interpolation-filters="sRGB">
<feFlood flood-opacity="0" result="BackgroundImageFix"/>
<feColorMatrix in="SourceAlpha" type="matrix" values="0 0 0 0 0 0 0 0 0 0 0 0 0 0 0 0 0 0 127 0"/>
<feOffset dy="1"/>
<feGaussianBlur stdDeviation="0.5"/>
<feColorMatrix type="matrix" values="0 0 0 0 0 0 0 0 0 0 0 0 0 0 0 0 0 0 0.2 0"/>
<feBlend mode="normal" in2="BackgroundImageFix" result="effect1_dropShadow"/>
<feBlend mode="normal" in="SourceGraphic" in2="effect1_dropShadow" result="shape"/>
</filter>
</defs>
</svg>
